# xmcd
#
# Track frame offsets:
#	150
#	23911
#	39632
#	63577
#	84779
#	105418
#	126930
#	149819
#	167765
#	189344
#	205595
#
# Disc length: 3072 seconds
#
# Revision: 1
# Processed by: cddbd v1.4PL0 Copyright (c) Steve Scherf et al.
# Submitted via: EasyCDDAExtractor 5.0.6
#
DISCID=930bfe0b
DTITLE=Various Artist - Love Potion
DYEAR=2002
DGENRE=Blues
TTITLE0=X Man - Shake It
TTITLE1=X-Man - Juke Joint Woman
TTITLE2=X Man - Love Potion
TTITLE3=X Man - Too Cheap To cheat
TTITLE4=X Man - Kiss It
TTITLE5=X Man - Just Can't Stop
TTITLE6=X Man - Same Man
TTITLE7=X Man - Another Lover
TTITLE8=X Man - I Can Tell...
TTITLE9=X Man - Raising The Cost To Be The Boss
TTITLE10=X Man - Crown
EXTD=
EXTT0=
EXTT1=
EXTT2=
EXTT3=
EXTT4=
EXTT5=
EXTT6=
EXTT7=
EXTT8=
EXTT9=
EXTT10=
PLAYORDER=
